<mxfile host="Electron" modified="2024-04-05T11:56:18.868Z" agent="Mozilla/5.0 (Windows NT 10.0; Win64; x64) AppleWebKit/537.36 (KHTML, like Gecko) draw.io/22.1.21 Chrome/120.0.6099.109 Electron/28.1.0 Safari/537.36" etag="8gnjGOdlTl0BNuCMgrJv" version="22.1.21" type="device">
  <diagram name="Page-1" id="2tnbs_DWiO-YCEmqEAac">
    <mxGraphModel dx="875" dy="1624" grid="1" gridSize="10" guides="1" tooltips="1" connect="1" arrows="1" fold="1" page="1" pageScale="1" pageWidth="850" pageHeight="1100" math="0" shadow="0">
      <root>
        <mxCell id="0" />
        <mxCell id="1" parent="0" />
        <mxCell id="hIFG7dHzroYhYwF2kZxw-1" value="Thiết bị hiển thị và giám sát rèm&lt;br&gt;STM32F401RE - Nucleo" style="rounded=0;whiteSpace=wrap;html=1;" parent="1" vertex="1">
          <mxGeometry x="530" y="260" width="160" height="60" as="geometry" />
        </mxCell>
        <mxCell id="hIFG7dHzroYhYwF2kZxw-30" style="edgeStyle=orthogonalEdgeStyle;rounded=0;orthogonalLoop=1;jettySize=auto;html=1;exitX=0.875;exitY=0.5;exitDx=0;exitDy=0;exitPerimeter=0;entryX=0;entryY=0.5;entryDx=0;entryDy=0;" parent="1" source="hIFG7dHzroYhYwF2kZxw-2" target="hIFG7dHzroYhYwF2kZxw-28" edge="1">
          <mxGeometry relative="1" as="geometry" />
        </mxCell>
        <mxCell id="hIFG7dHzroYhYwF2kZxw-2" value="Server BLYNK" style="ellipse;shape=cloud;whiteSpace=wrap;html=1;" parent="1" vertex="1">
          <mxGeometry x="320" y="-140" width="120" height="80" as="geometry" />
        </mxCell>
        <mxCell id="hIFG7dHzroYhYwF2kZxw-7" value="Coordinator&lt;br&gt;EFR32MG21" style="rounded=0;whiteSpace=wrap;html=1;" parent="1" vertex="1">
          <mxGeometry x="320" y="120" width="120" height="60" as="geometry" />
        </mxCell>
        <mxCell id="hIFG7dHzroYhYwF2kZxw-16" value="ED mô phỏng rèm&lt;br&gt;EFR32MG21" style="rounded=0;whiteSpace=wrap;html=1;" parent="1" vertex="1">
          <mxGeometry x="550" y="120" width="120" height="60" as="geometry" />
        </mxCell>
        <mxCell id="hIFG7dHzroYhYwF2kZxw-21" value="ESP32" style="rounded=0;whiteSpace=wrap;html=1;" parent="1" vertex="1">
          <mxGeometry x="320" width="120" height="60" as="geometry" />
        </mxCell>
        <mxCell id="hIFG7dHzroYhYwF2kZxw-28" value="User app" style="ellipse;whiteSpace=wrap;html=1;" parent="1" vertex="1">
          <mxGeometry x="520" y="-140" width="120" height="80" as="geometry" />
        </mxCell>
        <mxCell id="hIFG7dHzroYhYwF2kZxw-29" style="edgeStyle=orthogonalEdgeStyle;rounded=0;orthogonalLoop=1;jettySize=auto;html=1;exitX=0;exitY=0.5;exitDx=0;exitDy=0;entryX=0.875;entryY=0.5;entryDx=0;entryDy=0;entryPerimeter=0;" parent="1" source="hIFG7dHzroYhYwF2kZxw-28" target="hIFG7dHzroYhYwF2kZxw-2" edge="1">
          <mxGeometry relative="1" as="geometry" />
        </mxCell>
        <mxCell id="9SAXMzQ8T8Q-l0JwNSmv-1" value="&lt;font style=&quot;font-size: 20px;&quot;&gt;Sơ đồ kết nối mạch&lt;/font&gt;" style="text;html=1;strokeColor=none;fillColor=none;align=center;verticalAlign=middle;whiteSpace=wrap;rounded=0;" parent="1" vertex="1">
          <mxGeometry x="270" y="-190" width="240" height="50" as="geometry" />
        </mxCell>
        <mxCell id="WIksFkfHuQQlvkGHhCaq-7" value="" style="endArrow=classic;startArrow=classic;html=1;rounded=0;entryX=0.5;entryY=1;entryDx=0;entryDy=0;exitX=0.5;exitY=0;exitDx=0;exitDy=0;" parent="1" source="hIFG7dHzroYhYwF2kZxw-7" target="hIFG7dHzroYhYwF2kZxw-21" edge="1">
          <mxGeometry width="50" height="50" relative="1" as="geometry">
            <mxPoint x="210" y="90" as="sourcePoint" />
            <mxPoint x="260" y="40" as="targetPoint" />
          </mxGeometry>
        </mxCell>
        <mxCell id="WIksFkfHuQQlvkGHhCaq-8" value="USART" style="edgeLabel;html=1;align=center;verticalAlign=middle;resizable=0;points=[];" parent="WIksFkfHuQQlvkGHhCaq-7" vertex="1" connectable="0">
          <mxGeometry x="0.0533" y="-2" relative="1" as="geometry">
            <mxPoint as="offset" />
          </mxGeometry>
        </mxCell>
        <mxCell id="WIksFkfHuQQlvkGHhCaq-10" value="" style="endArrow=classic;startArrow=classic;html=1;rounded=0;entryX=0.55;entryY=0.95;entryDx=0;entryDy=0;entryPerimeter=0;exitX=0.5;exitY=0;exitDx=0;exitDy=0;" parent="1" source="hIFG7dHzroYhYwF2kZxw-21" target="hIFG7dHzroYhYwF2kZxw-2" edge="1">
          <mxGeometry width="50" height="50" relative="1" as="geometry">
            <mxPoint x="470" y="-30" as="sourcePoint" />
            <mxPoint x="520" y="-80" as="targetPoint" />
          </mxGeometry>
        </mxCell>
        <mxCell id="WIksFkfHuQQlvkGHhCaq-11" value="Wifi&lt;br&gt;wireless" style="edgeLabel;html=1;align=center;verticalAlign=middle;resizable=0;points=[];" parent="WIksFkfHuQQlvkGHhCaq-10" vertex="1" connectable="0">
          <mxGeometry x="0.049" relative="1" as="geometry">
            <mxPoint as="offset" />
          </mxGeometry>
        </mxCell>
        <mxCell id="WIksFkfHuQQlvkGHhCaq-13" value="" style="endArrow=classic;startArrow=classic;html=1;rounded=0;exitX=1;exitY=0.5;exitDx=0;exitDy=0;entryX=0;entryY=0.5;entryDx=0;entryDy=0;" parent="1" source="hIFG7dHzroYhYwF2kZxw-7" target="hIFG7dHzroYhYwF2kZxw-16" edge="1">
          <mxGeometry width="50" height="50" relative="1" as="geometry">
            <mxPoint x="580" y="130" as="sourcePoint" />
            <mxPoint x="630" y="80" as="targetPoint" />
          </mxGeometry>
        </mxCell>
        <mxCell id="WIksFkfHuQQlvkGHhCaq-14" value="Zigbee wireless" style="edgeLabel;html=1;align=center;verticalAlign=middle;resizable=0;points=[];" parent="WIksFkfHuQQlvkGHhCaq-13" vertex="1" connectable="0">
          <mxGeometry x="-0.0011" relative="1" as="geometry">
            <mxPoint as="offset" />
          </mxGeometry>
        </mxCell>
        <mxCell id="WIksFkfHuQQlvkGHhCaq-16" value="" style="endArrow=classic;startArrow=classic;html=1;rounded=0;entryX=0.5;entryY=1;entryDx=0;entryDy=0;exitX=0.5;exitY=0;exitDx=0;exitDy=0;" parent="1" source="hIFG7dHzroYhYwF2kZxw-1" target="hIFG7dHzroYhYwF2kZxw-16" edge="1">
          <mxGeometry width="50" height="50" relative="1" as="geometry">
            <mxPoint x="390" y="250" as="sourcePoint" />
            <mxPoint x="440" y="200" as="targetPoint" />
          </mxGeometry>
        </mxCell>
        <mxCell id="WIksFkfHuQQlvkGHhCaq-17" value="USART" style="edgeLabel;html=1;align=center;verticalAlign=middle;resizable=0;points=[];" parent="WIksFkfHuQQlvkGHhCaq-16" vertex="1" connectable="0">
          <mxGeometry x="-0.0011" y="2" relative="1" as="geometry">
            <mxPoint as="offset" />
          </mxGeometry>
        </mxCell>
      </root>
    </mxGraphModel>
  </diagram>
</mxfile>
